<svg xmlns="http://www.w3.org/2000/svg" width="420" height="120" viewBox="0 0 420 120" role="img" aria-labelledby="title desc">
  <title id="title">Download for macOS</title>
  <desc id="desc">A dark rounded download button with an Apple logo and macOS label.</desc>
  <rect width="420" height="120" rx="10" fill="#060708"/>
  <g transform="translate(46 27)" fill="#fff">
    <path d="M50.3 35.1c-.1-8.3 6.8-12.3 7.1-12.5-3.9-5.7-9.9-6.5-12-6.6-5.1-.5-9.9 3-12.5 3-2.6 0-6.6-2.9-10.8-2.8-5.6.1-10.7 3.2-13.6 8.2-5.8 10-1.5 24.8 4.1 33 2.8 4 6 8.4 10.3 8.3 4.1-.2 5.7-2.7 10.7-2.7s6.4 2.7 10.8 2.6c4.5-.1 7.3-4 10-8 3.2-4.6 4.5-9.1 4.6-9.3-.1 0-8.6-3.3-8.7-13.2z"/>
    <path d="M42 10.6c2.3-2.8 3.9-6.7 3.4-10.6-3.3.1-7.4 2.2-9.8 5-2.2 2.5-4.1 6.5-3.6 10.3 3.7.3 7.5-1.9 10-4.7z"/>
  </g>
  <text x="140" y="48" fill="#a6a8ad" font-family="-apple-system, BlinkMacSystemFont, Segoe UI, sans-serif" font-size="15" font-weight="700" letter-spacing="5">DOWNLOAD FOR</text>
  <text x="140" y="78" fill="#ffffff" font-family="-apple-system, BlinkMacSystemFont, Segoe UI, sans-serif" font-size="32" font-weight="500">macOS</text>
</svg>
